<svg width="67" height="67" viewBox="0 0 67 67" fill="none" xmlns="http://www.w3.org/2000/svg">
<path d="M65.0248 29.6398L65.0149 59.8182C65.0149 62.5375 62.808 64.7444 60.0887 64.7444L6.895 64.7543C4.1757 64.7543 1.96875 62.5472 1.96875 59.828V29.6398C1.96875 28.1521 2.63871 26.7531 3.79149 25.8172L32.2455 2.70311C32.9746 2.11198 34.0091 2.11198 34.7382 2.70311L63.2021 25.8172C64.3548 26.7531 65.0248 28.1521 65.0248 29.6398Z" fill="#FFDC00"/>
<path d="M65.0255 29.6425L65.0156 59.8207C65.0156 62.54 62.8086 64.7469 60.0894 64.7469L6.89569 64.7568C5.18136 64.7568 3.66404 63.8799 2.77734 62.54C63.252 56.7763 60.6213 30.4898 60.6213 30.4898L64.4343 27.3271C64.8185 28.0267 65.0255 28.8248 65.0255 29.6425Z" fill="#FFE751"/>
<path d="M57.1453 13.2032V32.3982L37.2676 45.5081C35.645 46.5783 33.5448 46.5944 31.9059 45.5492L9.84766 31.4818V13.2032C9.84766 10.4822 12.0535 8.27637 14.7745 8.27637H52.2185C54.9395 8.27638 57.1453 10.4822 57.1453 13.2032Z" fill="white"/>
<path d="M57.1436 13.1997V32.4023L37.2711 45.5061C35.6454 46.58 33.5468 46.5898 31.9015 45.5455L29.2019 43.8213L9.85156 31.4859V13.1997C9.85156 10.4804 12.0486 8.27344 14.7778 8.27344H52.2173C52.9365 8.27344 53.6164 8.43111 54.2272 8.69714C55.9415 9.46562 57.1436 11.1997 57.1436 13.1997Z" fill="white"/>
<path d="M57.1448 13.1988V32.4014L37.2723 45.5052C35.6466 46.5791 33.5481 46.589 31.9027 45.5446L29.2031 43.8204C54.0905 34.4507 55.2038 16.8344 54.2285 8.69629C55.9428 9.46476 57.1448 11.1988 57.1448 13.1988Z" fill="#DFE1E6"/>
<path d="M63.8421 63.0052L42.875 42.0371L63.8421 63.0052Z" fill="#EFE8E6"/>
<path d="M43.5322 18.9227H50.7415C51.2856 18.9227 51.7268 18.4816 51.7268 17.9374C51.7268 17.3933 51.2856 16.9521 50.7415 16.9521H43.5322C42.988 16.9521 42.5469 17.3933 42.5469 17.9374C42.5469 18.4816 42.9881 18.9227 43.5322 18.9227Z" fill="#010101"/>
<path d="M28.3915 18.9227H37.0427C37.5868 18.9227 38.028 18.4816 38.028 17.9374C38.028 17.3933 37.5868 16.9521 37.0427 16.9521H28.3915C27.8474 16.9521 27.4062 17.3933 27.4062 17.9374C27.4062 18.4816 27.8474 18.9227 28.3915 18.9227Z" fill="#010101"/>
<path d="M16.2509 18.9227H24.013C24.5571 18.9227 24.9983 18.4816 24.9983 17.9374C24.9983 17.3933 24.5571 16.9521 24.013 16.9521H16.2509C15.7068 16.9521 15.2656 17.3933 15.2656 17.9374C15.2656 18.4816 15.7068 18.9227 16.2509 18.9227Z" fill="#010101"/>
<path d="M44.3336 29.5H35.3134C34.7693 29.5 34.3281 29.9412 34.3281 30.4853C34.3281 31.0294 34.7693 31.4706 35.3134 31.4706H44.3336C44.8777 31.4706 45.3189 31.0294 45.3189 30.4853C45.3189 29.9412 44.8777 29.5 44.3336 29.5Z" fill="#010101"/>
<path d="M30.7502 29.5H22.6572C22.113 29.5 21.6719 29.9412 21.6719 30.4853C21.6719 31.0294 22.113 31.4706 22.6572 31.4706H30.7502C31.2944 31.4706 31.7355 31.0294 31.7355 30.4853C31.7355 29.9412 31.2944 29.5 30.7502 29.5Z" fill="#010101"/>
<path d="M40.3447 25.1972H50.7403C51.2844 25.1972 51.7256 24.756 51.7256 24.2119C51.7256 23.6677 51.2844 23.2266 50.7403 23.2266H40.3447C39.8005 23.2266 39.3594 23.6677 39.3594 24.2119C39.3594 24.756 39.8005 25.1972 40.3447 25.1972Z" fill="#010101"/>
<path d="M37.4265 24.2119C37.4265 23.6677 36.9853 23.2266 36.4412 23.2266H29.2314C28.6873 23.2266 28.2461 23.6677 28.2461 24.2119C28.2461 24.756 28.6873 25.1972 29.2314 25.1972H36.4412C36.9853 25.1972 37.4265 24.756 37.4265 24.2119Z" fill="#010101"/>
<path d="M25.1706 24.2119C25.1706 23.6677 24.7294 23.2266 24.1853 23.2266H16.2548C15.7107 23.2266 15.2695 23.6677 15.2695 24.2119C15.2695 24.756 15.7107 25.1972 16.2548 25.1972H24.1853C24.7294 25.1972 25.1706 24.756 25.1706 24.2119Z" fill="#010101"/>
<path d="M23.2695 41.2178C23.297 41.2353 23.3253 41.2534 23.3532 41.2712C23.3204 41.2502 23.2934 41.233 23.2695 41.2178Z" fill="#010101"/>
<path d="M63.8264 25.0536L58.1314 20.4325V20.4227V13.2005C58.1314 9.93919 55.481 7.28875 52.2197 7.28875H41.9627H41.9529L35.3613 1.92875C35.1346 1.7345 34.5627 1.40885 33.9917 1.30801C33.6666 1.24889 33.3316 1.24889 33.0064 1.30801C32.5478 1.389 32.0828 1.58409 31.627 1.9386L25.0452 7.28875H14.7785C11.5172 7.28875 8.86673 9.93919 8.86673 13.2005V20.4227L3.1717 25.0536C1.83779 26.1374 0.984375 27.8032 0.984375 29.6352V59.7557V59.8443C0.994238 63.0958 3.64468 65.7364 6.89614 65.7364L60.0922 65.7265C63.3732 65.7265 66.0039 63.0311 66.0039 59.8148L66.0138 29.6352C66.0138 27.8518 65.2157 26.1768 63.8264 25.0536ZM58.1314 22.9647L62.5849 26.5808C62.8214 26.768 63.0185 26.9749 63.2057 27.2114V27.2201L58.1314 30.5673V22.9647ZM32.8685 3.46579C32.967 3.38695 33.0656 3.33771 33.1739 3.29831C33.371 3.22933 33.5779 3.22933 33.7749 3.28845C33.903 3.31798 34.0114 3.3771 34.1198 3.46579L38.8295 7.28874H28.1587L32.8685 3.46579ZM10.8373 13.2005C10.8373 11.0329 12.601 9.25933 14.7785 9.25933H52.2197C54.3873 9.25933 56.1608 11.0329 56.1608 13.2005V31.862L36.7308 44.6807C36.1827 45.0537 35.3645 45.3309 34.5435 45.3309C33.8332 45.3309 33.0868 45.1299 32.4401 44.7177C32.4319 44.7125 32.4111 44.6992 32.3758 44.6768C32.3954 44.6893 32.4118 44.6997 32.4239 44.7074C32.4034 44.6944 32.3843 44.6822 32.366 44.6705C32.3386 44.6531 32.3026 44.63 32.2576 44.6013C32.2233 44.5793 32.1955 44.5617 32.1727 44.5472C32.1845 44.5547 32.1972 44.5627 32.2103 44.5711C32.1818 44.5529 32.1498 44.5325 32.1148 44.5102C32.1243 44.5162 32.1366 44.5241 32.15 44.5327C32.1278 44.5185 32.1116 44.5082 32.1023 44.5022C30.9572 43.7717 26.4 40.8643 10.8373 30.9358C10.8373 30.4447 10.8373 14.0814 10.8373 13.2005ZM4.2457 26.7286C4.30482 26.6793 4.35407 26.6301 4.41318 26.5808L8.86673 22.9647V29.6806L4.24305 26.7313C4.24401 26.7304 4.24473 26.7294 4.2457 26.7286ZM2.95496 59.7557V29.6352C2.95496 29.2017 3.02394 28.778 3.16184 28.3839C3.16232 28.3825 3.16304 28.3812 3.16352 28.3798C18.0761 37.9011 22.2411 40.5602 23.2167 41.1831C23.2055 41.176 23.1973 41.1707 23.1883 41.165C23.2065 41.1766 23.2338 41.1941 23.2697 41.217C23.2512 41.2052 23.2331 41.1936 23.2172 41.1834C23.4446 41.3285 23.5004 41.3643 23.4761 41.3488C23.4766 41.3491 23.4768 41.3492 23.4773 41.3495L3.33864 61.4882C3.0928 60.9861 2.95496 60.425 2.95496 59.8345V59.7557ZM60.0922 63.7559L6.89614 63.7658C6.04044 63.7658 5.2438 63.4906 4.59414 63.0192L24.8798 42.7335C24.9846 42.6288 25.0549 42.5052 25.1027 42.3747L31.3804 46.3793C32.3046 46.9693 33.4892 47.3114 34.5534 47.3114C35.7579 47.3114 36.9953 46.8698 37.8147 46.3302L42.6104 43.1666L62.4237 62.9799C61.764 63.471 60.9577 63.7559 60.0922 63.7559ZM64.0333 59.8148C64.0333 60.3955 63.9053 60.9565 63.6791 61.4488L44.2894 42.0591L63.9933 29.0608C63.9935 29.0618 63.9938 29.0628 63.9939 29.0637C64.0333 29.2509 64.0432 29.4381 64.0432 29.6352L64.0333 59.8148Z" fill="#010101"/>
<path d="M32.3659 44.6703C32.3694 44.6726 32.3725 44.6745 32.3757 44.6766C32.368 44.6717 32.3601 44.6666 32.3516 44.6611C32.3559 44.664 32.3614 44.6674 32.3659 44.6703Z" fill="#010101"/>
<path d="M23.1874 41.1649C23.1358 41.1321 23.1458 41.1384 23.1874 41.1649V41.1649Z" fill="#010101"/>
<path d="M23.4784 41.3488C23.4668 41.3413 23.4602 41.3371 23.4492 41.3301C23.4629 41.3388 23.4726 41.345 23.4784 41.3488Z" fill="#010101"/>
<path d="M23.4489 41.3301C23.425 41.3148 23.3916 41.2936 23.3555 41.2705C23.3833 41.2883 23.4139 41.3078 23.4489 41.3301Z" fill="#010101"/>
<path d="M32.3125 44.6367C32.3257 44.6452 32.3385 44.6533 32.3507 44.6611C32.3369 44.6522 32.3251 44.6447 32.3125 44.6367Z" fill="#010101"/>
<path d="M32.2109 44.5713C32.228 44.5822 32.2433 44.5919 32.2582 44.6014C32.275 44.6121 32.2942 44.6245 32.314 44.6371C32.2801 44.6154 32.2442 44.5925 32.2109 44.5713Z" fill="#010101"/>
<path d="M32.1017 44.5027C32.1058 44.5052 32.1103 44.5081 32.1142 44.5107C32.0892 44.4947 32.0808 44.4894 32.1017 44.5027Z" fill="#010101"/>
</svg>
