<svg width="15" height="15" viewBox="0 0 15 15" fill="none" xmlns="http://www.w3.org/2000/svg">
<path d="M13.7709 6.34936L1.53264 1.03155C1.38916 0.96922 1.22219 1.00096 1.11156 1.11156C1.00096 1.22219 0.96922 1.38921 1.03155 1.53266L6.34938 13.7709C6.41006 13.9106 6.54768 14 6.69858 14C6.70576 14 6.713 13.9998 6.72018 13.9994C6.87946 13.9904 7.01624 13.8831 7.06288 13.7305L8.20323 10.002C8.46701 9.13948 9.13946 8.46704 10.002 8.20323L13.7305 7.06289C13.883 7.01622 13.9904 6.87944 13.9994 6.72019C14.0084 6.56094 13.9172 6.41294 13.7709 6.34936Z" stroke="white" stroke-width="2"/>
</svg>
