<svg width="19" height="18" viewBox="0 0 19 18" fill="none" xmlns="http://www.w3.org/2000/svg">
<circle cx="9.03851" cy="9" r="8.5" stroke="#f2f2f2"/>
<path fill-rule="evenodd" clip-rule="evenodd" d="M6.53851 7.3429C6.53851 6.05964 7.58253 5.01562 8.86579 5.01562C10.149 5.01562 11.1931 6.05964 11.1931 7.3429C11.1931 8.42534 10.4503 9.33754 9.4476 9.59654V10.5429C9.4476 10.8642 9.18712 11.1247 8.86579 11.1247C8.54445 11.1247 8.28397 10.8642 8.28397 10.5429V9.08835C8.28397 8.76701 8.54445 8.50653 8.86579 8.50653C9.50741 8.50653 10.0294 7.98453 10.0294 7.3429C10.0294 6.70127 9.50741 6.17926 8.86579 6.17926C8.22416 6.17926 7.70215 6.70127 7.70215 7.3429C7.70215 7.66424 7.44167 7.92472 7.12033 7.92472C6.79899 7.92472 6.53851 7.66424 6.53851 7.3429ZM9.59462 12.2883C9.59462 12.69 9.26901 13.0156 8.86735 13.0156C8.46569 13.0156 8.14008 12.69 8.14008 12.2883C8.14008 11.8866 8.46569 11.561 8.86735 11.561C9.26901 11.561 9.59462 11.8866 9.59462 12.2883Z" fill="#999999"/>
</svg>
