<svg width="21" height="20" viewBox="0 0 21 20"  xmlns="http://www.w3.org/2000/svg">
<path  fill-rule="evenodd" clip-rule="evenodd" d="M18.4471 3.46605C18.4862 3.03637 18.8663 2.71977 19.296 2.75895C19.7257 2.79813 20.0423 3.1782 20.003 3.60793L19.6237 7.76926C19.5696 8.36391 18.8867 8.68699 18.3916 8.33406L15.0137 5.92152C14.6626 5.67074 14.5813 5.18285 14.832 4.83172C15.0828 4.48063 15.5707 4.3993 15.9218 4.65004L17.0358 5.44563C15.5337 3.07543 12.9117 1.5625 10.0064 1.5625C6.81874 1.5625 3.99346 3.3798 2.58655 6.13465C2.3903 6.51895 1.91979 6.67133 1.53546 6.47508C1.1512 6.27883 0.998777 5.80824 1.19503 5.42398C2.85745 2.16883 6.20632 0 10.0064 0C13.5387 0 16.5873 1.84352 18.3435 4.60156L18.4471 3.46605ZM17.4198 13.8654C17.616 13.4811 18.0866 13.3287 18.4709 13.5249C18.8551 13.7212 19.0075 14.1918 18.8113 14.576C17.1489 17.8312 13.8 20 9.99996 20C6.46757 20 3.41898 18.1565 1.66281 15.3984L1.55929 16.5339C1.52015 16.9632 1.14058 17.2801 0.710348 17.241C0.2807 17.2018 -0.035902 16.8218 0.00327764 16.3921L0.382614 12.2307C0.437301 11.63 1.12566 11.3166 1.61468 11.6659L4.99261 14.0785C5.34371 14.3293 5.42503 14.8172 5.17429 15.1683C4.92351 15.5194 4.43562 15.6007 4.08449 15.35L2.97054 14.5544C4.47265 16.9246 7.09461 18.4375 9.99996 18.4375C13.1876 18.4375 16.0128 16.6202 17.4198 13.8654Z"/>
</svg>
