<svg width="16" height="16" viewBox="0 0 16 16" fill="none" xmlns="http://www.w3.org/2000/svg">
<path d="M15.0776 10.7676C14.5806 10.2694 13.9275 9.95722 13.2278 9.88334C12.528 9.80947 11.8241 9.97841 11.2341 10.3618C10.6441 10.7453 10.2038 11.3199 9.98709 11.9893C9.77039 12.6588 9.79042 13.3824 10.0438 14.0388C8.09829 13.5335 6.32307 12.5176 4.90173 11.0963C3.48038 9.6749 2.46452 7.89967 1.95919 5.95413C2.60625 6.20745 3.3199 6.23476 3.98443 6.03163C4.64895 5.8285 5.22537 5.40685 5.62021 4.83505C6.01505 4.26326 6.20515 3.57485 6.1597 2.88146C6.11424 2.18807 5.83588 1.53037 5.36977 1.01502C4.90366 0.499666 4.27712 0.156878 3.59177 0.0422469C2.90642 -0.0723847 2.20243 0.0478623 1.59399 0.383487C0.985541 0.719112 0.508312 1.25043 0.239691 1.89129C-0.0289301 2.53214 -0.0731899 3.24495 0.114089 3.91411C0.312905 7.02386 1.6381 9.95461 3.84167 12.1579C6.04524 14.3611 8.97617 15.6859 12.0859 15.8843C12.7387 16.069 13.4343 16.0317 14.0635 15.7782C14.6927 15.5247 15.2199 15.0694 15.5623 14.4837C15.9046 13.8981 16.0428 13.2153 15.955 12.5426C15.8672 11.87 15.5584 11.2455 15.0772 10.7674L15.0776 10.7676ZM1.94756 1.981C2.16726 1.76131 2.44716 1.61171 2.75188 1.5511C3.05659 1.49049 3.37244 1.5216 3.65948 1.6405C3.94651 1.7594 4.19185 1.96074 4.36445 2.21907C4.53706 2.4774 4.62919 2.78111 4.62919 3.09179C4.62919 3.40248 4.53706 3.70619 4.36445 3.96452C4.19185 4.22285 3.94651 4.42419 3.65948 4.54309C3.37244 4.66198 3.05659 4.6931 2.75188 4.63249C2.44716 4.57188 2.16726 4.42228 1.94756 4.20259C1.80111 4.05705 1.68489 3.88397 1.60558 3.69334C1.52627 3.5027 1.48544 3.29827 1.48544 3.09179C1.48544 2.88532 1.52627 2.68088 1.60558 2.49025C1.68489 2.29961 1.80111 2.12654 1.94756 1.981ZM14.0167 14.0501C13.797 14.2695 13.5172 14.419 13.2127 14.4794C12.9081 14.5399 12.5925 14.5087 12.3056 14.3898C12.0188 14.2709 11.7737 14.0697 11.6012 13.8115C11.4287 13.5533 11.3367 13.2498 11.3367 12.9393C11.3367 12.6288 11.4287 12.3253 11.6012 12.0671C11.7737 11.8089 12.0188 11.6076 12.3056 11.4888C12.5925 11.3699 12.9081 11.3387 13.2127 11.3992C13.5172 11.4596 13.797 11.609 14.0167 11.8285C14.3108 12.1234 14.476 12.5229 14.4759 12.9394C14.4758 13.3559 14.3105 13.7553 14.0163 14.0501H14.0167Z" fill="black"/>
</svg>
