<svg width="52" height="52" viewBox="0 0 52 52" fill="none" xmlns="http://www.w3.org/2000/svg">
<path d="M47.5948 40.4337L47.4286 40.3225C50.2887 36.0445 51.8 31.092 51.8 26C51.8 19.1082 49.1166 12.6299 44.2434 7.75658C39.3701 2.88344 32.8918 0.2 26 0.2C19.1082 0.2 12.6299 2.88343 7.75658 7.75658C7.75658 7.75658 7.75658 7.75658 7.75658 7.75658M47.5948 40.4337L7.61516 44.3848C2.70451 39.474 0 32.9448 0 26C0 19.0552 2.70451 12.526 7.61516 7.61516L7.75658 7.75658M47.5948 40.4337L47.4286 40.3225C46.8666 41.1633 45.7293 41.3893 44.8884 40.8271C44.0477 40.265 43.8218 39.1277 44.3839 38.287C46.8392 34.6144 48.1375 30.3655 48.1375 26C48.1375 13.7931 38.2069 3.8625 26 3.8625C13.7931 3.8625 3.8625 13.7931 3.8625 26C3.8625 38.2069 13.7931 48.1375 26 48.1375C30.0484 48.1375 34.0086 47.0352 37.4519 44.9494C38.317 44.4254 39.4429 44.7018 39.967 45.567C40.4911 46.4319 40.2145 47.5581 39.3496 48.082C35.3341 50.5143 30.718 51.8 26 51.8C19.1082 51.8 12.6299 49.1166 7.75658 44.2434C2.88344 39.3701 0.2 32.8918 0.2 26C0.2 19.1082 2.88343 12.6299 7.75658 7.75658M47.5948 40.4337L7.75658 7.75658M38.3588 13.4253L38.3588 13.4253C37.7847 12.8568 36.9059 12.7319 36.1961 13.1174C34.717 13.9211 31.5328 15.6658 28.5108 17.4174C26.9997 18.2933 25.5307 19.17 24.3363 19.931C23.1351 20.6965 22.2306 21.3333 21.8324 21.7315C21.8324 21.7315 21.8324 21.7315 21.8324 21.7315M38.3588 13.4253L21.691 30.208C20.5401 29.057 19.9062 27.5268 19.9062 25.899C19.9062 24.2713 20.5401 22.7411 21.691 21.5901L21.8324 21.7315M38.3588 13.4253C38.933 13.9937 39.0666 14.8712 38.6879 15.5849C37.896 17.0772 36.1761 20.2895 34.4456 23.3372C33.5803 24.8612 32.7133 26.3424 31.9588 27.546C31.1999 28.7569 30.5668 29.6673 30.1676 30.0665C29.0187 31.2154 27.5097 31.7899 26 31.7899C24.4903 31.7899 22.9814 31.2154 21.8324 30.0666M38.3588 13.4253L21.8324 30.0666M21.8324 21.7315C20.719 22.845 20.1063 24.3244 20.1063 25.899C20.1063 27.4737 20.719 28.9531 21.8324 30.0666M21.8324 21.7315L21.8324 30.0666M21.8324 30.0666C21.8324 30.0666 21.8324 30.0666 21.8324 30.0666M21.8324 30.0666C21.8324 30.0666 21.8324 30.0666 21.8324 30.0666M30.9435 10.8327L30.9435 10.8327C30.7435 11.8241 29.7774 12.4655 28.7862 12.2656C24.1657 11.333 19.4198 12.7635 16.0917 16.0917C13.269 18.9144 11.7816 22.8207 12.0107 26.8091C12.0685 27.8172 11.2571 28.7453 10.1562 28.7453C9.19614 28.7453 8.41026 27.996 8.35433 27.0192L8.35433 27.0192C8.0654 21.9891 9.94183 17.0622 13.502 13.502C17.6999 9.30409 23.6836 7.49964 29.5108 8.6754C30.5021 8.87547 31.1437 9.84137 30.9435 10.8327ZM13.3605 13.3605C9.76005 16.9611 7.86246 21.9437 8.15466 27.0307L13.3605 13.3605ZM41.1016 20.8583L41.1016 20.8583C42.0904 20.6451 43.0645 21.2742 43.2775 22.2628C44.5489 28.1653 42.7624 34.2341 38.4981 38.4981C38.1405 38.8557 37.6722 39.0345 37.2033 39.0345C36.7342 39.0345 36.266 38.8557 35.9083 38.4981C35.1931 37.783 35.1932 36.6236 35.9084 35.9084C39.289 32.5279 40.7053 27.7145 39.697 23.0341C39.4841 22.0454 40.1129 21.0713 41.1016 20.8583ZM13.5021 38.4981L13.3606 38.6396L13.5021 38.4981C12.5636 37.5599 11.7323 36.5192 11.0311 35.4053C10.4922 34.5494 10.7492 33.4188 11.6052 32.8799C12.461 32.3412 13.5916 32.5981 14.1305 33.4541C14.6865 34.3374 15.3464 35.1631 16.0918 35.9083C16.807 36.6234 16.8071 37.7828 16.0919 38.498C15.7342 38.8556 15.266 39.0344 14.7969 39.0344C14.3279 39.0344 13.8596 38.8557 13.5021 38.4981ZM27.5777 27.4768L27.5794 27.4751C27.7368 27.3139 27.9689 26.9938 28.2539 26.5627C28.5422 26.1264 28.8937 25.5624 29.2914 24.9018C30.0871 23.5803 31.0711 21.867 32.111 20.0054L32.4614 19.3783L31.8373 19.7341C29.9782 20.7944 28.2794 21.7901 26.9714 22.5935C26.3175 22.9951 25.7599 23.3494 25.3282 23.6401C24.9014 23.9276 24.5845 24.1615 24.4229 24.3206L24.4218 24.3217C23.5522 25.1915 23.5522 26.6067 24.4223 27.4768L24.5637 27.3353L24.4223 27.4768C25.2924 28.3468 26.7075 28.3467 27.5777 27.4768Z" fill="black" stroke="white" stroke-width="0.4"/>
</svg>
