<svg width="22" height="22" viewBox="0 0 22 22" fill="none" xmlns="http://www.w3.org/2000/svg">
<path fill-rule="evenodd" clip-rule="evenodd" d="M11 0C17.05 0 22 4.95 22 11C22 12.375 21.725 13.75 21.2208 15.0333C19.5708 19.2042 15.4917 22 11 22C5.04167 22 0 16.9583 0 11C0 4.95 4.95 0 11 0ZM6.41667 18.9292C9.16667 20.5333 12.65 20.5792 15.4 19.0208C15.4458 19.0208 15.5375 18.975 15.5375 18.9292L14.9417 17.4167H7.0125L6.41667 18.9292ZM5.775 15.5833H16.225L17.0958 17.8292C18.975 16.1333 20.1667 13.7042 20.1667 11C20.1667 5.95833 16.0417 1.83333 11 1.83333C5.95833 1.83333 1.83333 5.95833 1.83333 11C1.83333 13.7042 3.025 16.1333 4.85833 17.8292L5.775 15.5833ZM7.33203 10.0833C7.33203 8.06668 8.98203 6.41669 10.9987 6.41669C13.0154 6.41669 14.6653 8.06668 14.6653 10.0833C14.6653 12.1 13.0154 13.75 10.9987 13.75C8.98203 13.75 7.33203 12.1 7.33203 10.0833ZM9.16536 10.0833C9.16536 11.0917 9.99036 11.9167 10.9987 11.9167C12.007 11.9167 12.832 11.0917 12.832 10.0833C12.832 9.07502 12.007 8.25002 10.9987 8.25002C9.99036 8.25002 9.16536 9.07502 9.16536 10.0833Z" fill="black"/>
</svg>
