<?xml version="1.0" encoding="UTF-8"?>
<svg width="135px" height="82px" viewBox="0 0 135 82" version="1.1" xmlns="http://www.w3.org/2000/svg" xmlns:xlink="http://www.w3.org/1999/xlink">
    <!-- Generator: Sketch 51.2 (57519) - http://www.bohemiancoding.com/sketch -->
    <title>logo</title>
    <desc>Created with Sketch.</desc>
    <defs></defs>
    <g id="Page-1" stroke="none" stroke-width="1" fill="none" fill-rule="evenodd">
        <g id="logo" transform="translate(-1.000000, 0.000000)">
            <path d="M128.55,31.37 L128.55,31.28 L123.91,8.73 C122.841821,3.66479571 118.386525,0.0297737201 113.21,-1.18859094e-15 L23.88,-1.18859094e-15 C17.9863759,-0.00224087423 13.1625076,4.68861635 13,10.58 L4.66,10.58 C3.61664279,10.6440098 2.64235908,11.1231339 1.95467714,11.9103982 C1.2669952,12.6976625 0.923181754,13.7275076 1,14.77 C0.914719253,15.818473 1.25441542,16.8572268 1.94271558,17.6527213 C2.63101575,18.4482157 3.61015635,18.9336913 4.66,19 L6.82,19 C5.76530438,19.8514204 5.16658881,21.1449416 5.2,22.5 C5.15636543,23.854943 5.75276242,25.1514582 6.81,26 L4.66,26 C2.50524829,26.1392266 0.868816316,27.9947437 1,30.15 C0.923181754,31.1924924 1.2669952,32.2223375 1.95467714,33.0096018 C2.64235908,33.7968661 3.61664279,34.2759902 4.66,34.34 L13,34.34 L13,39.34 C13.0165231,45.338761 17.8812187,50.1945142 23.88,50.2 L31.56,50.2 C33.1666112,53.7264871 36.6847825,55.9897439 40.56,55.9897439 C44.4352175,55.9897439 47.9533888,53.7264871 49.56,50.2 L92.49,50.2 C94.0966112,53.7264871 97.6147825,55.9897439 101.49,55.9897439 C105.365218,55.9897439 108.883389,53.7264871 110.49,50.2 L117.71,50.2 C123.718207,50.2000228 128.593464,45.3381847 128.61,39.33 L128.61,32.08 C128.604923,31.8418876 128.581521,31.6045194 128.54,31.37 M40.54,47.61 C39.7170957,47.61 39.05,46.9429043 39.05,46.12 C39.05,45.2970957 39.7170957,44.63 40.54,44.63 C41.3629043,44.63 42.03,45.2970957 42.03,46.12 C42.0245471,46.940635 41.360635,47.6045471 40.54,47.61 M101.47,47.61 C100.652663,47.5880501 100.0057,46.9115499 100.020236,46.0940475 C100.034772,45.276545 100.705376,44.6234726 101.522977,44.6305935 C102.340578,44.6377145 102.999705,45.3023684 103,46.12 C102.98923,46.9384018 102.328402,47.5992302 101.51,47.61" id="Shape" fill="#FFDD00" fill-rule="nonzero"></path>
            <path d="M110.93,5.32 L115.86,28.5 C116.002302,29.1874486 116.607978,29.6803436 117.31,29.68 L124.31,29.6800002 L120.94,12.84 C120.11,8.7 117.48,5.16 113.28,5.16 L110.9,5.16 L110.9,5.32 L110.93,5.32 Z" id="Shape" fill="#FFFFFF"></path>
            <path d="M124.35,33.22 L117.35,33.22 C114.973275,33.204142 112.925246,31.5424556 112.42,29.22 L107.44,6 L107.38,5.66 L107.29,5.28 L107.29,5.18 L21.29,5.18 C19.2952742,5.19093025 17.6809303,6.80527421 17.67,8.8 L17.67,16.59 L20.26,16.59 L20.26,20.73 L17.65,20.73 L17.65,24.27 L20.24,24.27 L20.24,28.41 L17.65,28.41 L17.65,30 L20.24,30 L20.24,39 C20.2451194,41.8315108 22.5188209,44.1363589 25.35,44.18 L32,44.18 C33.0308151,39.8465407 37.1309593,36.9618282 41.5579029,37.455407 C45.9848465,37.9489858 49.3489452,41.6659184 49.4,46.12 C49.4,46.24 49.4,46.36 49.4,46.47 L92.7,46.47 C92.7,46.36 92.7,46.24 92.7,46.12 C92.8601985,41.3616723 96.7639763,37.5871111 101.525,37.5871111 C106.286024,37.5871111 110.189801,41.3616723 110.35,46.12 C110.35,46.24 110.35,46.36 110.35,46.47 L115.6,46.47 C120.611166,46.4480929 124.668093,42.3911661 124.69,37.38 L124.69,33.22 L124.35,33.22 Z M45.61,30.3 L41.72,30.3 L41.72,20.36 L45.61,20.36 L45.61,30.3 Z M55.28,30.3 L51.39,30.3 L51.39,20.36 L55.28,20.36 L55.28,30.3 Z M70,24.17 C67.5380907,23.5489599 65.8096419,21.3390147 65.8,18.8 L65.8,14.8 C65.8194005,14.1386453 66.3396366,13.601068 67,13.56 L69.14,16.82 C69.0955074,16.8235912 69.0587828,16.8562353 69.05,16.9 L69.05,18.9 C69.0965744,19.9836868 69.9227275,20.8733901 71,21 L70,24.17 Z M93,16.61 C90.7153618,16.5137237 88.6565321,17.9796105 88,20.17 C88,20.17 88.06,20.25 88.17,20.25 L91.25,23 L85,23 C84.6140846,23.0065904 84.2461147,22.8373243 84,22.54 C83.770456,22.261258 83.6786339,21.8939696 83.75,21.54 C84.516647,17.0113708 88.4074086,13.6758314 93,13.61 L93,16.61 Z" id="Shape" fill="#FFFFFF"></path>
            <path d="M67.48,69.5 C67.48,69.5 67.48,69.42 67.48,69.38 C67.48,69.34 67.48,69.29 67.48,69.25 L65.86,65.81 C65.5615769,65.1695561 64.8006623,64.8920461 64.16,65.19 C63.8541036,65.3348909 63.6187009,65.5958966 63.5060493,65.9150762 C63.3933977,66.2342558 63.4128183,66.5851991 63.56,66.89 L64.91,69.77 L63.52,72.65 C63.2321684,73.241624 63.4397245,73.9550981 64,74.3 C64.1699183,74.3972124 64.3646327,74.4424139 64.56,74.43 C65.0470753,74.4399831 65.494141,74.1615474 65.7,73.72 L67.36,70.29 C67.36,70.29 67.36,70.2 67.36,70.16 C67.3697424,70.1205932 67.3697424,70.0794068 67.36,70.04 C67.3695017,69.9971875 67.3695017,69.9528125 67.36,69.91 C67.36,69.91 67.36,69.83 67.36,69.79 C67.3688948,69.7471231 67.3688948,69.7028769 67.36,69.66 L67.48,69.5 Z" id="Shape" fill="#1D1D1B" fill-rule="nonzero"></path>
            <path d="M61.25,67.93 C60.7708819,67.9219847 60.3083436,68.105341 59.9648485,68.439451 C59.6213534,68.773561 59.4252572,69.2308437 59.42,69.71 C59.4305606,70.7030015 60.2271758,71.5084679 61.22,71.53 C62.2040211,71.5137023 62.9946976,70.7141418 63,69.73 C63.0080829,69.2536514 62.8237968,68.7941573 62.4888062,68.4554028 C62.1538156,68.1166483 61.6964091,67.9272398 61.22,67.93" id="Shape" fill="#1D1D1B" fill-rule="nonzero"></path>
            <path d="M56.21,67.88 C55.2142721,67.8855013 54.4099848,68.6942569 54.41,69.69 C54.41,70.6841125 55.2158875,71.49 56.21,71.49 C57.2041125,71.49 58.01,70.6841125 58.01,69.69 C58.0048173,68.6931042 57.206674,67.8816585 56.21,67.86" id="Shape" fill="#1D1D1B" fill-rule="nonzero"></path>
            <path d="M51.2,67.86 C50.2031904,67.8707039 49.3961958,68.6732645 49.38,69.67 C49.3855624,70.6601757 50.189845,71.4599242 51.1800363,71.4598886 C52.1702276,71.459853 52.9744528,70.6600466 52.9799439,69.6698706 C52.9854351,68.6796945 52.19013,67.8710177 51.2,67.86" id="Shape" fill="#1D1D1B" fill-rule="nonzero"></path>
            <path d="M20.15,68.78 C21.18,68 22,66.5 22,64 C22,61.5 21,58.8 16.41,58.8 L13.41,58.8 C12.33,58.8 12.1,59.36 12.1,59.8 L12.1,80.66 C12.1026241,80.784661 12.1546767,80.9031704 12.2447004,80.9894431 C12.3347241,81.0757158 12.4553402,81.1226806 12.58,81.12 L16.43,81.12 C20.35,81.12 22.71,78.24 22.71,73.37 C22.71,70.49 21.42,69.27 20.14,68.78 L20.15,68.78 Z M15.58,61.92 L16.58,61.92 C17.47,61.92 18.38,62.23 18.38,64.49 C18.38,66.41 17.74,67.49 16.62,67.49 L15.62,67.49 L15.58,61.92 Z M16.5,78 L15.59,78 L15.59,70.62 L16.52,70.62 C17.97,70.62 18.86,70.74 18.86,73.62 C18.86,76.5 18,78 16.5,78 Z" id="Shape" fill="#1D1D1B" fill-rule="nonzero"></path>
            <path d="M36,58.79 C33.41,58.79 33,58.79 33,59.79 L33,77.83 C32.2833066,78.0662615 31.5345785,78.1910495 30.78,78.2 C28.67,78.2 28.3,77 28.3,74.49 L28.3,59.25 C28.2946967,58.9981784 28.0918216,58.7953033 27.84,58.79 C25.15,58.79 24.84,58.79 24.84,59.79 L24.84,74.43 C24.84,78.05 25.56,81.43 30.84,81.43 C32.7263381,81.493891 34.5990264,81.0884282 36.29,80.25 C36.4221022,80.1644793 36.5013188,80.0173628 36.5,79.86 L36.5,59.25 C36.4946967,58.9981784 36.2918216,58.7953033 36.04,58.79" id="Shape" fill="#1D1D1B" fill-rule="nonzero"></path>
            <path d="M43.5,66 C42.7350983,65.2968577 42.2696816,64.3266427 42.2,63.29 C42.2,62.29 43.13,61.63 44.7,61.63 C45.6495976,61.5945411 46.5896376,61.8304183 47.41,62.31 C47.6025811,62.4605816 47.8793054,62.4342269 48.04,62.25 C48.4912259,61.7720203 48.7540987,61.1468094 48.78,60.49 C48.78,59.58 47.99,58.49 44.31,58.49 C40.63,58.49 38.57,60.36 38.57,63.36 C38.6405474,65.1241861 39.3515719,66.802204 40.57,68.08 L43.66,71.64 C44.9,73.09 45.33,74 45.33,75.31 C45.33,77.13 44.53,77.98 42.79,77.98 C41.7689608,78.0217104 40.7706759,77.6710584 40,77 C39.9078279,76.8950316 39.7675722,76.8457526 39.63,76.87 C39.5011061,76.8765803 39.384363,76.9481325 39.32,77.06 C38.8682959,77.6325621 38.6061542,78.3316066 38.57,79.06 C38.57,80.2 39.96,81.36 43.04,81.36 C46.88,81.36 48.99,79.16 48.99,75.15 C49.0167444,73.1098539 48.2326788,71.1424967 46.81,69.68 L43.5,66 Z" id="Shape" fill="#1D1D1B" fill-rule="nonzero"></path>
            <path d="M80,59.23 C79.79,58.9 79.36,58.75 78.63,58.75 C78.0642542,58.7618453 77.501254,58.8322204 76.95,58.96 C76.8509696,58.9835245 76.7628398,59.0399276 76.7,59.12 L72.49,67 L72.49,59.14 C72.4793633,58.9435045 72.316783,58.7897123 72.12,58.79 C69.51,58.79 69.24,58.79 69.24,59.68 L69.24,80.68 C69.2342863,80.8806317 69.389576,81.049232 69.59,81.06 C72.2,81.06 72.49,81.06 72.49,80.21 L72.49,70.64 C72.7179712,70.7783692 72.9264751,70.9465175 73.11,71.14 C74.77,72.94 75.6,76 76.47,80.7 C76.4805605,80.8633518 76.6163075,80.990341 76.78,80.99 C77.3775757,81.0591175 77.9784548,81.0958379 78.58,81.1 C78.9986328,81.1533165 79.4216276,81.0421908 79.76,80.79 C79.9284193,80.5868648 79.9980159,80.3194677 79.95,80.06 C79.16,74.28 77.54,70.35 75.14,68.34 L80,60 C80.1334272,59.7571181 80.1334272,59.4628819 80,59.22" id="Shape" fill="#1D1D1B" fill-rule="nonzero"></path>
            <path d="M92,58.79 L90.05,58.79 C89.9786902,58.788527 89.908723,58.8095171 89.85,58.85 C89.172632,59.4196765 88.7424935,60.2297706 88.65,61.11 L87.73,65.85 C87.38,67.72 87.07,69.56 86.73,71.53 C86.52,70.62 86.34,69.73 86.15,68.88 C85.88,67.66 85.61,66.46 85.34,65.15 L83.8,59.06 C83.758828,58.900536 83.6146921,58.7893455 83.45,58.79 L81.69,58.79 C81.42,58.79 80.59,58.79 80.59,59.58 C80.6585852,60.1252617 80.7963611,60.6595635 81,61.17 C82.16,65.38 84.32,73.17 85.52,76.58 C85.43,77.22 85.23,78.18 84.75,78.18 C84.3009175,78.1208607 83.8668179,77.9784218 83.47,77.76 C83.2953864,77.6768742 83.0862121,77.7422411 82.99,77.91 C82.635021,78.5142407 82.4679267,79.2104668 82.51,79.91 C82.64,80.61 83.69,81.11 85.06,81.11 L85.23,81.11 C87.65,81.11 88.13,78.85 88.73,76.02 L88.73,75.79 C89.21,73.79 90.34,68.44 91.28,64.11 C91.75,61.87 92.15,59.99 92.28,59.18 C92.303277,59.069842 92.2736759,58.9551379 92.2,58.87 C92.13078,58.781375 92.0222169,58.7327088 91.91,58.74" id="Shape" fill="#1D1D1B" fill-rule="nonzero"></path>
            <path d="M97,58.79 L94,58.79 C93.7542584,58.752014 93.5051311,58.8334725 93.3293018,59.0093018 C93.1534725,59.1851311 93.072014,59.4342584 93.11,59.68 L93.11,80.68 C93.1042863,80.8806317 93.259576,81.049232 93.46,81.06 C96.05,81.06 96.32,81.06 96.32,80.21 L96.32,72.3 L97,72.3 C99.26,72.3 103,71.38 103,65.23 C103,60.84 101.09,58.79 97,58.79 M97.29,69.27 L96.29,69.27 L96.29,61.69 L97.47,61.69 C98.47,61.69 99.47,62.06 99.47,64.96 C99.47,68.75 98.33,69.27 97.23,69.27" id="Shape" fill="#1D1D1B" fill-rule="nonzero"></path>
            <path d="M108.71,67.3 L107.41,67.3 L107.41,59.14 C107.400031,58.9509834 107.249017,58.7999686 107.06,58.79 C104.47,58.79 104.14,58.79 104.14,59.79 L104.14,80.66 C104.1373,80.7598511 104.175087,80.8565516 104.24477,80.9281182 C104.314454,80.9996847 104.410112,81.0400365 104.51,81.04 L108.51,81.04 C112.3,81.04 114.57,78.32 114.57,73.79 C114.57,69.42 112.67,67.3 108.73,67.3 M108.55,78.12 L107.43,78.07 L107.43,70.39 C107.8,70.39 108.43,70.33 108.61,70.33 C109.69,70.33 110.95,70.72 110.95,73.62 C110.95,76.52 110.08,78.12 108.55,78.12" id="Shape" fill="#1D1D1B" fill-rule="nonzero"></path>
            <path d="M123.44,61.75 C124.27,61.75 124.27,61.32 124.27,59.14 C124.259232,58.939576 124.090632,58.7842863 123.89,58.79 L116.54,58.79 C116.052922,58.8005924 115.660592,59.1929215 115.65,59.68 L115.65,80.68 C115.677626,80.8553108 115.822922,80.9881523 116,81 L123.29,81 C124.14,81 124.14,80.54 124.14,78.39 C124.145714,78.1893683 123.990424,78.020768 123.79,78.01 L118.9,78.01 L118.9,70.49 L122.69,70.49 C123.52,70.49 123.52,69.87 123.52,67.82 C123.52,67.6156546 123.354345,67.45 123.15,67.45 L118.9,67.45 L118.9,61.75 L123.44,61.75 Z" id="Shape" fill="#1D1D1B" fill-rule="nonzero"></path>
            <path d="M129.4,58.79 L126.4,58.79 C126.154258,58.752014 125.905131,58.8334725 125.729302,59.0093018 C125.553472,59.1851311 125.472014,59.4342584 125.51,59.68 L125.51,80.68 C125.5073,80.7798511 125.545087,80.8765516 125.61477,80.9481182 C125.684454,81.0196847 125.780112,81.0600365 125.88,81.06 C128.45,81.06 128.72,81.06 128.72,80.21 L128.72,72.3 L129.44,72.3 C131.68,72.3 135.44,71.38 135.44,65.23 C135.44,60.84 133.53,58.79 129.44,58.79 M129.71,69.27 L128.71,69.27 L128.71,61.69 L129.89,61.69 C130.84,61.69 131.89,62.06 131.89,64.96 C131.89,68.75 130.77,69.27 129.65,69.27" id="Shape" fill="#1D1D1B" fill-rule="nonzero"></path>
            <path d="M75.37,18.85 L75.37,14.85 C75.3673581,14.5078675 75.2289075,14.1807985 74.9851079,13.9407497 C74.7413084,13.700701 74.4121323,13.5673375 74.07,13.57 L65.57,13.57 C64.8653418,13.5754416 64.2954416,14.1453418 64.29,14.85 L64.29,18.85 C64.3029644,21.3923339 66.0417046,23.6007812 68.51,24.21 L68.51,29.45 L65.74,29.45 C65.4509102,29.45264 65.1747109,29.5700187 64.972169,29.7763114 C64.7696271,29.982604 64.6573356,30.2609104 64.66,30.55 L64.66,31 C64.6573356,31.2890896 64.7696271,31.567396 64.972169,31.7736886 C65.1747109,31.9799813 65.4509102,32.09736 65.74,32.1 L73.9,32.1 C74.5052504,32.0945714 74.9945714,31.6052504 75,31 L75,30.55 C74.9945714,29.9447496 74.5052504,29.4554286 73.9,29.45 L71.15,29.45 L71.15,24.21 C73.6182954,23.6007812 75.3570356,21.3923339 75.37,18.85 M70.09,21.08 L69.57,21.08 C68.4581936,20.9667135 67.6142433,20.0275483 67.62,18.91 L67.62,17 C67.619819,16.9769307 67.6296057,16.9549063 67.6468484,16.9395795 C67.6640911,16.9242526 67.6871111,16.9171155 67.71,16.92 L71.93,16.92 C71.9504352,16.9197902 71.9699415,16.9285212 71.9833989,16.943901 C71.9968562,16.9592808 72.0029205,16.9797735 72,17 L72,18.95 C72.0166946,20.0607245 71.1844888,21.0012903 70.08,21.12" id="Shape" fill="#1D1D1B" fill-rule="nonzero"></path>
            <path d="M57,31.29 L57,30.24 C57,29.7926494 56.6373506,29.43 56.19,29.43 L53.93,29.43 L53.93,21.25 L55.65,21.25 C55.9906292,21.252145 56.3051754,21.0678937 56.4698942,20.7697318 C56.634613,20.4715698 56.6231444,20.1072124 56.44,19.82 L53.38,14.82 C53.1911456,14.5681942 52.8947573,14.42 52.58,14.42 C52.2652427,14.42 51.9688544,14.5681942 51.78,14.82 L48.69,19.82 C48.5068556,20.1072124 48.495387,20.4715698 48.6601058,20.7697318 C48.8248246,21.0678937 49.1393708,21.252145 49.48,21.25 L51.22,21.25 L51.22,29.43 L44.3,29.43 L44.3,21.25 L46,21.25 C46.341386,21.2528457 46.657477,21.0703735 46.8257381,20.7733202 C46.9939991,20.4762668 46.9879746,20.1113375 46.81,19.82 L43.73,14.82 C43.5411456,14.5681942 43.2447573,14.42 42.93,14.42 C42.6152427,14.42 42.3188544,14.5681942 42.13,14.82 L39.04,19.82 C38.8620254,20.1113375 38.8560009,20.4762668 39.0242619,20.7733202 C39.192523,21.0703735 39.508614,21.2528457 39.85,21.25 L41.57,21.25 L41.57,29.43 L39.35,29.43 C38.9120868,29.4409153 38.5643884,29.8019867 38.57,30.24 L38.57,31.29 C38.5643884,31.7280133 38.9120868,32.0890847 39.35,32.1 L56.15,32.1 C56.3648254,32.1 56.570852,32.014661 56.7227565,31.8627565 C56.874661,31.710852 56.96,31.5048254 56.96,31.29" id="Shape" fill="#1D1D1B" fill-rule="nonzero"></path>
            <path d="M93.43,32 L93.86,32 C94.9005884,31.9816471 95.8909217,31.5491915 96.6116744,30.7984074 C97.3324271,30.0476234 97.7241177,29.0404708 97.7,28 C97.7430851,27.5101721 97.5061121,27.0379531 97.087642,26.7797468 C96.6691718,26.5215406 96.1408282,26.5215406 95.722358,26.7797468 C95.3038879,27.0379531 95.0669149,27.5101721 95.11,28 C95.1383472,28.7217524 94.5813218,29.3322522 93.86,29.37 L93.43,29.37 C92.7126493,29.3270119 92.161492,28.7180719 92.19,28 L92.19,23 L99.27,23 C99.6528914,23.0129889 100.020894,22.8510679 100.27,22.56 C100.501579,22.2820192 100.600199,21.9167606 100.54,21.56 C99.8510024,17.0138093 95.9431048,13.6535476 91.345,13.6535476 C86.7468952,13.6535476 82.8389976,17.0138093 82.15,21.56 C82.0829064,21.9138589 82.1742779,22.2793451 82.4,22.56 C82.6517057,22.8475469 83.0179484,23.0086937 83.4,23 L89.7,23 L89.7,28.11 C89.6731752,29.1495283 90.0626075,30.1567226 90.7817758,30.9078122 C91.5009441,31.6589018 92.4902871,32.0916816 93.53,32.11 L93.43,32 Z M86.53,20.3 C86.43,20.3 86.36,20.3 86.36,20.24 C87.106082,18.117844 89.1105146,16.6978396 91.36,16.6978396 C93.6094854,16.6978396 95.613918,18.117844 96.36,20.24 C96.36,20.24 96.36,20.3 96.19,20.3 L86.53,20.3 Z" id="Shape" fill="#1D1D1B" fill-rule="nonzero"></path>
            <path d="M15.43,18.33 L15.43,20.69 L8.87,20.69 C8.19,20.69 7.63,21.48 7.63,22.47 C7.63,23.46 8.19,24.23 8.87,24.23 L30.22,24.23 C30.9,24.23 31.46,23.44 31.46,22.47 C31.46,21.5 30.9,20.69 30.22,20.69 L18.73,20.69 L18.73,18.33 L15.43,18.33 Z" id="Shape" fill="#1D1D1B" fill-rule="nonzero"></path>
            <path d="M27.26,30.15 C27.26,29.15 26.7,28.37 26.02,28.37 L18.73,28.37 L18.73,25.93 L15.43,25.93 L15.43,28.37 L4.66,28.37 C3.98,28.37 3.42,29.18 3.42,30.15 C3.42,31.12 4,31.91 4.66,31.91 L26,31.91 C26.68,31.91 27.24,31.13 27.24,30.15" id="Shape" fill="#1D1D1B" fill-rule="nonzero"></path>
            <path d="M101.51,53.58 C105.631588,53.557926 108.956469,50.2017528 108.939933,46.0801384 C108.923398,41.958524 105.571696,38.6291367 101.450063,38.6401337 C97.3284298,38.6511307 93.9945415,41.9983561 94,46.12 C93.9999929,48.1019851 94.7886997,50.0025025 96.1920497,51.4021003 C97.5953997,52.801698 99.498022,53.5853136 101.48,53.58 M101.48,42.21 C103.643618,42.221046 105.389146,43.9829802 105.379952,46.146607 C105.370758,48.3102337 103.610318,50.0572692 101.446684,50.0499263 C99.2830501,50.0425835 97.5345087,48.2836393 97.54,46.12 C97.542643,45.0786109 97.9595576,44.0810737 98.698742,43.3475176 C99.4379265,42.6139615 100.438621,42.2046834 101.48,42.21" id="Shape" fill="#1D1D1B" fill-rule="nonzero"></path>
            <path d="M33.1,46.12 C33.1055231,50.2429584 36.4503672,53.5818336 40.5733289,53.5799926 C44.6962905,53.5781515 48.0381515,50.2362905 48.0399926,46.1133289 C48.0418336,41.9903672 44.7029584,38.6455231 40.58,38.64 C36.4489101,38.64 33.1,41.9889101 33.1,46.12 M44.49,46.12 C44.4940441,47.7073047 43.5404522,49.1403763 42.0747441,49.7496811 C40.609036,50.358986 38.9205517,50.0242434 37.7981541,48.9018459 C36.6757566,47.7794483 36.341014,46.090964 36.9503189,44.6252559 C37.5596237,43.1595478 38.9926953,42.2059559 40.58,42.21 C42.7348861,42.2209387 44.4790613,43.9651139 44.49,46.12" id="Shape" fill="#1D1D1B" fill-rule="nonzero"></path>
            <path d="M31.75,46.12 C31.7659822,45.4862057 31.8497934,44.8559454 32,44.24 L23.84,44.24 C21.0088209,44.1963589 18.7351194,41.8915108 18.73,39.06 L18.73,33.76 L15.43,33.76 L15.43,39.33 C15.4355104,43.9945218 19.2154782,47.7744896 23.88,47.78 L31.88,47.78 C31.7758014,47.2327544 31.7222418,46.6770728 31.72,46.12" id="Shape" fill="#1D1D1B" fill-rule="nonzero"></path>
            <path d="M4.66,16.55 L26,16.55 C26.68,16.55 27.24,15.76 27.24,14.77 C27.24,13.78 26.7,13 26,13 L18.73,13 L18.73,11.08 C18.7299947,8.22306569 21.043071,5.90551532 23.9,5.9 L105.59,5.9 L110.68,29.9 C111.185246,32.2224556 113.233275,33.884142 115.61,33.9 L122.61,33.9 L122.61,39.41 C122.61,39.51 122.61,39.62 122.61,39.72 C122.554919,40.6297974 122.246657,41.5060926 121.72,42.25 L121.62,42.25 C120.693706,43.4663031 119.285677,44.2213864 117.76,44.32 L110.11,44.32 C110.251678,44.9365715 110.322139,45.5673638 110.32,46.2 C110.317758,46.7570728 110.264199,47.3127544 110.16,47.86 L117.72,47.86 C119.963732,47.8626537 122.116621,46.9738789 123.705054,45.3891962 C125.293487,43.8045134 126.187349,41.653732 126.19,39.41 L126.19,32.08 C126.199786,31.9635385 126.199786,31.8464615 126.19,31.73 L121.53,9.22 C120.715786,5.26975587 117.243266,2.43163895 113.21,2.42 L23.88,2.42 C19.2154782,2.42551037 15.4355104,6.20547824 15.43,10.87 L15.43,13 L4.66,13 C3.98,13 3.42,13.79 3.42,14.77 C3.42,15.75 4,16.55 4.66,16.55 Z M113.21,6 C115.572183,6.0046594 117.60052,7.68097062 118.05,10 L122.24,30.4 L115.61,30.4 C114.901166,30.3888659 114.292817,29.892255 114.14,29.2 L111.14,15.28 L114,15.28 L115.11,20.52 C115.340984,21.3786027 116.11106,21.9816252 117,22 C117.136267,22.0147888 117.273733,22.0147888 117.41,22 C118.458266,21.7561325 119.125575,20.7264426 118.92,19.67 L117.48,12.88 C117.272974,11.983043 116.480444,11.3432398 115.56,11.33 L110.36,11.33 L109.23,6 L113.21,6 Z" id="Shape" fill="#1D1D1B" fill-rule="nonzero"></path>
            <path d="M49.19,44.24 C49.3316778,44.8565715 49.4021387,45.4873638 49.4,46.12 C49.3977582,46.6770728 49.3441986,47.2327544 49.24,47.78 L92.83,47.78 C92.7258014,47.2327544 92.6722418,46.6770728 92.67,46.12 C92.672861,45.4876437 92.7432604,44.8574018 92.88,44.24 L49.19,44.24 Z" id="Shape" fill="#1D1D1B" fill-rule="nonzero"></path>
        </g>
    </g>
</svg>